HIERARCHY
ROOT Hips
{
	OFFSET -3.958830 18.904000 13.208200
	CHANNELS 6 Xposition Yposition Zposition Zrotation Yrotation Xrotation 
	JOINT LHipJoint
	{
		OFFSET 0.000000 0.000000 0.000000
		CHANNELS 3 Zrotation Yrotation Xrotation
		JOINT LeftUpLeg
		{
			OFFSET 1.800000 -1.400000 0.085000
			CHANNELS 3 Zrotation Yrotation Xrotation
			JOINT LeftLeg
			{
				OFFSET 2.215000 -6.000000 0.000000
				CHANNELS 3 Zrotation Yrotation Xrotation
				JOINT LeftFoot
				{
					OFFSET 2.500000 -6.900000 0.000000
					CHANNELS 3 Zrotation Yrotation Xrotation
					JOINT LeftToeBase
					{
						OFFSET 0.200000 -0.500000 1.950000
						CHANNELS 3 Zrotation Yrotation Xrotation
						End Site
						{
							OFFSET 0.000000 0.000000 0.000000
						}
					}
				}
			}
		}
	}
	JOINT RHipJoint
	{
		OFFSET 0.000000 0.000000 0.000000
		CHANNELS 3 Zrotation Yrotation Xrotation
		JOINT RightUpLeg
		{
			OFFSET -1.800000 -1.400000 0.085000
			CHANNELS 3 Zrotation Yrotation Xrotation
			JOINT RightLeg
			{
				OFFSET -2.215000 -6.000000 0.000000
				CHANNELS 3 Zrotation Yrotation Xrotation
				JOINT RightFoot
				{
					OFFSET -2.500000 -6.900000 0.000000
					CHANNELS 3 Zrotation Yrotation Xrotation
					JOINT RightToeBase
					{
						OFFSET -0.200000 -0.500000 1.950000
						CHANNELS 3 Zrotation Yrotation Xrotation
						End Site
						{
							OFFSET 0.000000 0.000000 0.000000
						}
					}
				}
			}
		}
	}
	JOINT LowerBack
	{
		OFFSET 0.000000 0.000000 0.000000
		CHANNELS 3 Zrotation Yrotation Xrotation
		JOINT Spine
		{
			OFFSET -0.087000 1.940000 -0.288900
			CHANNELS 3 Zrotation Yrotation Xrotation
			JOINT Spine1
			{
				OFFSET 0.000000 1.950000 0.060000
				CHANNELS 3 Zrotation Yrotation Xrotation
				JOINT Neck
				{
					OFFSET 0.000000 0.000000 0.000000
					CHANNELS 3 Zrotation Yrotation Xrotation
					JOINT Neck1
					{
						OFFSET 0.000000 1.600000 0.340000
						CHANNELS 3 Zrotation Yrotation Xrotation
						JOINT Head
						{
							OFFSET 0.000000 1.667000 -0.240000
							CHANNELS 3 Zrotation Yrotation Xrotation
							End Site
							{
								OFFSET 0.000000 0.000000 0.000000
							}
						}
					}
				}
				JOINT LeftShoulder
				{
					OFFSET 0.000000 0.000000 0.000000
					CHANNELS 3 Zrotation Yrotation Xrotation
					JOINT LeftArm
					{
						OFFSET 2.700000 1.550000 -0.730000
						CHANNELS 3 Zrotation Yrotation Xrotation
						JOINT LeftForeArm
						{
							OFFSET 5.450000 0.000000 0.000000
							CHANNELS 3 Zrotation Yrotation Xrotation
							JOINT LeftHand
							{
								OFFSET 3.450000 0.000000 0.000000
								CHANNELS 3 Zrotation Yrotation Xrotation
								JOINT LeftHandIndex1
								{
									OFFSET 0.750000 0.000000 0.000000
									CHANNELS 3 Zrotation Yrotation Xrotation
									End Site
									{
										OFFSET 0.000000 0.000000 0.000000
									}
								}
							}
						}
					}
				}
				JOINT RightShoulder
				{
					OFFSET 0.000000 0.000000 0.000000
					CHANNELS 3 Zrotation Yrotation Xrotation
					JOINT RightArm
					{
						OFFSET -2.700000 1.550000 -0.730000
						CHANNELS 3 Zrotation Yrotation Xrotation
						JOINT RightForeArm
						{
							OFFSET -5.450000 0.000000 0.000000
							CHANNELS 3 Zrotation Yrotation Xrotation
							JOINT RightHand
							{
								OFFSET -3.450000 0.000000 0.000000
								CHANNELS 3 Zrotation Yrotation Xrotation
								JOINT RightHandIndex1
								{
									OFFSET -0.750000 0.000000 0.000000
									CHANNELS 3 Zrotation Yrotation Xrotation
									End Site
									{
										OFFSET 0.000000 0.000000 0.000000
									}
								}
							}
						}
					}
				}
			}
		}
	}
}
MOTION
Frames: 7
Frame Time: 0.016667
-0.385370 17.389310 -3.266340 -4.413099 -6.781941 0.167297 -15.014433 13.509606 3.525338 0.477253 -1.503799 -16.629949 -5.374055 3.173185 1.127072 -0.309424 2.635179 3.765444 0.337370 0.084120 0.317580 18.251377 -10.449905 3.371609 -3.591351 1.494519 -2.784611 14.522623 -5.431014 6.049574 -0.681364 -3.959595 3.073591 -0.173810 -0.031390 0.333210 -3.712583 -2.711429 -8.312259 30.074155 -6.701326 27.743512 -18.639678 3.855212 2.668409 14.977227 -5.816637 -15.143227 -13.194896 2.480143 47.831841 -12.767120 0.561860 -14.158610 -19.559306 -2.467176 1.872895 -48.702227 12.470282 -12.214362 -20.119525 -18.111814 -0.758212 -3.423282 2.828650 0.651930 -0.110130 0.283800 0.084510 -11.006795 14.839764 11.289989 2.610167 4.992861 -9.826357 -44.218332 6.339886 -4.471802 2.736212 -1.708883 0.070260 0.054140 -0.039680 -0.112310 
-0.349260 17.379340 -3.296050 -4.586571 -7.573719 0.005904 -15.027550 13.546792 3.546716 0.959008 -1.380070 -16.256384 -6.157172 3.262428 0.615995 -0.307807 2.769770 3.734118 0.330510 0.044350 0.335660 18.238489 -10.394108 3.349590 -3.656057 1.778285 -2.959768 14.453588 -5.417250 6.450622 -0.686264 -3.925891 3.066848 -0.190930 -0.034280 0.338270 -3.665953 -2.901439 -8.271567 31.360771 -7.636611 28.986016 -20.106287 3.890956 2.606321 15.492880 -6.242077 -15.906355 -14.578791 2.280235 47.210392 -12.619170 -0.268370 -14.750720 -19.413146 -2.217854 1.370244 -48.422276 12.990940 -12.268690 -19.078905 -16.641265 -1.085386 -3.418925 2.786581 0.695050 -0.128360 0.290810 0.076000 -12.042762 15.464298 12.486584 -0.486156 4.084048 -7.730839 -33.899125 0.750407 -1.629178 2.871008 -1.540776 0.048830 0.062310 -0.030910 -0.129320 
-0.335600 17.368660 -3.329860 -4.860077 -8.662021 -0.226757 -15.035815 13.630404 3.535681 1.695122 -1.249132 -16.545492 -6.842015 3.467381 1.288872 -0.348779 2.889603 3.696893 0.284610 -0.017920 0.298080 18.220582 -10.357180 3.329508 -3.551560 2.081969 -3.278532 14.448907 -5.482931 7.224180 -0.659564 -3.887115 3.094489 -0.206010 -0.002850 0.300910 -3.611973 -3.091514 -8.208984 31.776702 -8.832450 30.984644 -21.164750 3.602569 1.800929 15.781682 -7.179969 -16.223919 -16.367173 3.598530 46.260568 -11.454390 0.108960 -15.617850 -18.838617 -1.290936 0.988965 -49.382995 14.051194 -12.962002 -17.940277 -16.199842 -1.339261 -3.433778 2.707746 0.742720 -0.135000 0.263710 0.062930 -13.054205 15.759023 12.699769 -0.379785 4.796276 -7.594176 -32.537434 0.178598 -1.403978 2.866097 -1.465250 -0.012820 0.112020 0.014730 -0.151120 
-0.325580 17.358550 -3.358100 -5.438221 -9.557644 -0.141374 -15.086066 13.843827 3.547294 2.743722 -1.102442 -17.681983 -7.489496 3.772603 2.869529 -0.341427 2.974207 3.643981 0.273920 -0.026550 0.277740 18.149277 -10.262789 3.298117 -2.755200 2.314659 -3.968089 13.882808 -5.472037 8.310444 -0.621837 -3.756822 3.139534 -0.212470 -0.005270 0.295410 -3.422392 -3.548371 -8.218909 31.557246 -9.168697 33.320022 -20.420379 4.037929 -0.454315 15.942862 -7.737355 -15.928778 -16.956039 4.529123 46.197502 -11.345200 0.748360 -16.095830 -19.448112 -0.406025 0.842400 -50.552187 15.525901 -13.558905 -17.134919 -15.773292 -1.490543 -3.433958 2.688223 0.751500 -0.145600 0.262720 0.061580 -12.833695 16.077171 11.795679 2.754922 6.240706 -10.136764 -42.170159 2.416695 -3.108228 2.811594 -1.621603 -0.016510 0.107980 0.023180 -0.149140 
-0.330350 17.332620 -3.390430 -5.814554 -9.895756 0.284334 -15.118271 14.004521 3.573306 3.798859 -1.122608 -20.247195 -8.442674 4.354246 6.201977 -0.274577 3.052806 3.571154 0.279560 0.000010 0.276690 18.090218 -10.244918 3.254611 -1.723514 2.598541 -5.475771 12.948172 -5.530928 10.294865 -0.574694 -3.604120 3.176376 -0.225760 -0.022390 0.322000 -3.275278 -3.793615 -8.240207 30.518953 -8.840844 34.912556 -18.599196 4.609117 -2.311788 15.572860 -7.504259 -15.053843 -15.525128 4.340661 45.355672 -12.273730 1.808550 -16.007460 -20.411315 0.327493 0.676359 -51.037679 16.399547 -13.825791 -17.657901 -14.737479 -1.541738 -3.444448 2.736083 0.698310 -0.142160 0.273550 0.064540 -11.391850 15.451738 10.785521 6.617968 6.830075 -12.150291 -54.558340 9.068706 -7.359516 2.684371 -1.759925 0.038470 0.053880 0.001290 -0.122260 
-0.332070 17.298640 -3.427250 -6.423741 -10.292195 0.471289 -15.199272 14.208005 3.620273 5.029816 -1.101581 -23.168152 -9.014954 5.149106 10.232598 -0.249565 3.325263 3.457707 0.253890 -0.032420 0.263230 18.000038 -10.122667 3.201525 -0.612092 3.022531 -6.948025 12.320910 -5.719050 12.843626 -0.522992 -3.521280 3.221420 -0.239240 0.005410 0.311200 -3.022709 -4.291054 -8.272364 28.846860 -8.782625 37.197152 -15.821933 5.034431 -4.145634 15.231728 -7.848706 -14.194903 -15.026356 5.030259 43.900597 -13.882230 3.441100 -15.990680 -20.644201 2.330628 0.040264 -52.794763 17.351881 -14.816860 -18.566756 -15.461164 -1.478542 -3.471614 2.708275 0.686670 -0.124310 0.253740 0.079370 -10.640715 14.305392 9.941717 12.087585 8.780247 -13.427711 -68.907299 16.881261 -15.050401 2.501235 -1.758683 0.015140 0.067990 -0.000730 -0.120560 
-0.349950 17.245760 -3.460060 -6.752349 -10.836620 0.394051 -15.321480 14.366324 3.726019 6.127302 -1.099358 -26.115235 -9.760747 6.181792 14.486387 -0.165801 3.759137 3.276243 0.242720 -0.031950 0.239450 17.895610 -9.924277 3.122258 0.318349 3.642849 -8.468134 11.821717 -6.054377 16.362917 -0.501661 -3.571574 3.214796 -0.245670 0.019310 0.307490 -2.698844 -4.878784 -8.339998 26.125445 -8.372245 40.195212 -12.241998 5.684139 -6.023562 14.589222 -8.265488 -13.379836 -14.589409 6.150853 41.942568 -15.446510 5.455570 -16.167750 -20.356424 5.129911 -0.836739 -54.450669 18.341174 -15.907285 -20.640219 -16.690996 -1.211838 -3.481065 2.723570 0.660540 -0.113150 0.244750 0.106290 -9.768707 12.661438 9.304541 17.984756 11.694346 -13.379450 -84.606547 23.390380 -26.380279 2.352540 -1.709773 0.016060 0.057250 -0.019880 -0.103760 
